<svg width="24" height="24" viewBox="0 0 24 24" fill="none" xmlns="http://www.w3.org/2000/svg">
<path fill-rule="evenodd" clip-rule="evenodd" d="M22 2.99994C22 2.44765 21.5523 1.99994 21 1.99994C20.4477 1.99994 20 2.44765 20 2.99994V20.9999C20 21.5522 20.4477 21.9999 21 21.9999C21.5523 21.9999 22 21.5522 22 20.9999V2.99994ZM10 6.99994C10 6.44765 9.55228 5.99994 9 5.99994C8.44772 5.99994 8 6.44765 8 6.99994L8 20.9999C8 21.5522 8.44772 21.9999 9 21.9999C9.55229 21.9999 10 21.5522 10 20.9999L10 6.99994ZM4 12.9999C4 12.4477 3.55228 11.9999 3 11.9999C2.44772 11.9999 2 12.4477 2 12.9999V20.9999C2 21.5522 2.44772 21.9999 3 21.9999C3.55228 21.9999 4 21.5522 4 20.9999V12.9999ZM15 11.9999C15.5523 11.9999 16 12.4477 16 12.9999V20.9999C16 21.5522 15.5523 21.9999 15 21.9999C14.4477 21.9999 14 21.5522 14 20.9999V12.9999C14 12.4477 14.4477 11.9999 15 11.9999Z" fill="#7C7B7B"/>
</svg>
