<svg width="20" height="20" viewBox="0 0 20 20" fill="none" xmlns="http://www.w3.org/2000/svg">
<path fill-rule="evenodd" clip-rule="evenodd" d="M10.5547 0.16795C10.2188 -0.0559832 9.78122 -0.0559832 9.44532 0.16795L0.445317 6.16795C0.0786593 6.41239 -0.0847736 6.86803 0.0429247 7.28978C0.170623 7.71154 0.559349 8 1.00002 8H2.00002V13V14.6154V16.2308L2.00002 19C2.00002 19.2652 2.10537 19.5196 2.29291 19.7071C2.48045 19.8946 2.7348 20 3.00002 20H17C17.2652 20 17.5196 19.8946 17.7071 19.7071C17.8947 19.5196 18 19.2652 18 19L18 16.5244V13V8H19C19.4407 8 19.8294 7.71154 19.9571 7.28978C20.0848 6.86803 19.9214 6.41239 19.5547 6.16795L10.5547 0.16795ZM16 8H4.00002V13V14.6154V16.2308L4.00002 18H16L16 16.5244V13V8ZM10 2.20185L15.6972 6H4.30279L10 2.20185ZM8.00002 10C8.5523 10 9.00002 10.4477 9.00002 11V15C9.00002 15.5523 8.5523 16 8.00002 16C7.44773 16 7.00002 15.5523 7.00002 15V11C7.00002 10.4477 7.44773 10 8.00002 10ZM13 11C13 10.4477 12.5523 10 12 10C11.4477 10 11 10.4477 11 11V15C11 15.5523 11.4477 16 12 16C12.5523 16 13 15.5523 13 15V11Z" fill="#7C7B7B"/>
</svg>
